PathFileType	4	(X/Y/Z)	TVC_20_Cal_03_0_static_RCNL2025.trc
DataRate	CameraRate	NumFrames	NumMarkers	Units	OrigDataRate	OrigDataStartFrame	OrigNumFrames
100	100	11	27	mm	100	100	133
Frame#	Time	R_Shoulder			L_Shoulder			C7			J_Notch			R_Elbow			L_Elbow			R_Wrist			L_Wrist			R_Asis			L_Asis			R_Psis			L_Psis			Sacral			Thoracic			Sternum			R_Thigh_Lateral			R_Knee_Lateral			R_Shank_Lateral			R_Ankle_Lateral			R_Heel			R_Toe			L_Thigh_Lateral			L_Knee_Lateral			L_Shank_Lateral			L_Ankle_Lateral			L_Heel			L_Toe		
		X1	Y1	Z1	X2	Y2	Z2	X3	Y3	Z3	X4	Y4	Z4	X5	Y5	Z5	X6	Y6	Z6	X7	Y7	Z7	X8	Y8	Z8	X9	Y9	Z9	X10	Y10	Z10	X11	Y11	Z11	X12	Y12	Z12	X13	Y13	Z13	X14	Y14	Z14	X15	Y15	Z15	X16	Y16	Z16	X17	Y17	Z17	X18	Y18	Z18	X19	Y19	Z19	X20	Y20	Z20	X21	Y21	Z21	X22	Y22	Z22	X23	Y23	Z23	X24	Y24	Z24	X25	Y25	Z25	X26	Y26	Z26	X27	Y27	Z27
100	0.99000000	-226.248734	1426.585449	-41.596607	-269.556030	1432.793823	-388.297241	-274.536804	1469.615723	-196.318405	-150.319794	1343.774780	-214.648087	-244.104767	1153.776855	123.003159	-280.337891	1131.160645	-512.409485	-134.237915	923.337646	180.820747	-141.286873	915.627991	-562.592834	-193.644684	1010.795532	-61.206654	-177.135818	1018.931152	-341.709869	-340.420746	1013.762451	-163.228973	-348.372864	1007.027405	-251.663300	-344.396805	1010.394928	-207.446136	-375.781189	1238.169434	-209.887604	-135.479431	1200.013062	-218.856796	-241.839233	679.913635	2.524668	-262.671844	471.072510	-59.815742	-309.596344	313.082611	-16.471624	-316.238129	76.282303	-88.970810	-355.486298	52.338871	-143.476196	-167.542542	36.669128	-81.761093	-230.629974	654.087708	-412.412079	-241.852509	462.783356	-356.980377	-257.170868	316.665344	-398.402618	-280.018951	74.144180	-319.056000	-325.992828	62.475201	-276.974121	-138.174606	38.075733	-294.643311
101	1.00000000	-226.260300	1426.534668	-41.582691	-269.573456	1432.767944	-388.230865	-274.542847	1469.536011	-196.297760	-150.315353	1343.790649	-214.655197	-244.112228	1153.749390	123.022575	-280.338867	1131.162354	-512.412170	-134.309093	923.396027	180.927620	-141.317177	915.672852	-562.603363	-193.569763	1010.760742	-61.268135	-177.156204	1018.860168	-341.734650	-340.402039	1013.755432	-163.248093	-348.380493	1006.971008	-251.643555	-344.391266	1010.363220	-207.445824	-375.809265	1238.175781	-209.860184	-135.576202	1200.000854	-218.895554	-241.681885	679.811096	2.474450	-262.637939	471.042084	-59.844257	-309.529358	313.072388	-16.397936	-316.238922	76.283310	-88.969948	-355.454712	52.352962	-143.493576	-167.700134	36.693012	-81.502541	-230.658371	654.187500	-412.455078	-241.848068	462.814453	-356.969696	-257.248138	316.633667	-398.368347	-280.017242	74.121658	-319.052948	-325.996552	62.500568	-276.860138	-138.121033	38.006767	-294.608124
102	1.01000000	-226.354401	1426.556274	-41.461033	-269.524078	1432.815918	-388.286041	-274.542511	1469.529541	-196.313721	-150.423599	1343.794312	-214.650391	-244.096680	1153.761597	123.002762	-280.408081	1131.181030	-512.393372	-134.428097	923.373291	180.947037	-141.329514	915.635406	-562.639893	-193.543991	1010.752502	-61.282181	-177.133652	1018.885498	-341.704498	-340.470032	1013.721313	-163.315918	-348.360535	1006.975891	-251.669220	-344.415283	1010.348602	-207.492569	-375.783630	1238.182983	-209.871216	-135.628967	1199.907959	-218.937775	-242.004135	680.210693	2.603175	-262.613342	471.000366	-59.881115	-309.547607	313.048096	-16.401936	-316.237305	76.301460	-88.983826	-355.307739	52.326309	-143.692810	-167.581253	36.629845	-81.742477	-230.655853	654.181274	-412.398071	-241.835358	462.819397	-356.978119	-257.178009	316.643005	-398.356964	-280.094330	74.167999	-319.062225	-325.957642	62.585808	-276.883636	-138.101303	38.008320	-294.598511
103	1.02000000	-226.790375	1426.415527	-41.335606	-269.566895	1432.787598	-388.233856	-274.541351	1469.582275	-196.282761	-150.446320	1343.780396	-214.659363	-244.095688	1153.794434	123.019554	-280.445831	1131.118286	-512.411072	-134.498917	923.318054	181.034874	-141.348492	915.640320	-562.613556	-193.621033	1010.734253	-61.334141	-177.127579	1018.905090	-341.701477	-340.467957	1013.778870	-163.339752	-348.390656	1006.956177	-251.762634	-344.429306	1010.367523	-207.551193	-375.803497	1238.210693	-209.858200	-135.650513	1199.855957	-218.929825	-241.884537	680.085083	2.553336	-262.612671	471.010925	-59.831760	-309.533722	313.029572	-16.413702	-316.236389	76.320709	-88.964851	-355.372009	52.368454	-143.524231	-167.540131	36.661507	-81.769653	-230.629578	653.994202	-412.418030	-241.863235	462.793579	-357.019409	-257.230194	316.613586	-398.500580	-279.369232	73.746384	-318.758545	-325.994293	62.509102	-276.854401	-138.118744	38.020721	-294.600708
104	1.03000000	-227.044083	1426.493896	-41.218697	-269.558624	1432.808716	-388.256958	-274.560638	1469.561157	-196.270859	-150.445740	1343.777954	-214.646332	-244.132217	1153.807373	123.028923	-280.447693	1131.155029	-512.397217	-134.538918	923.375977	181.041565	-141.472858	915.638031	-562.614197	-193.699738	1010.763855	-61.303234	-177.133972	1018.902161	-341.740143	-340.529449	1013.795776	-163.397949	-348.387817	1007.049805	-251.812057	-344.458633	1010.422791	-207.605003	-375.780853	1238.197754	-209.893631	-135.651550	1199.839600	-218.924484	-242.055466	680.262207	2.626665	-262.528473	471.039001	-59.862560	-309.497681	313.045258	-16.422478	-316.165192	76.327339	-88.890129	-355.477234	52.405479	-143.457703	-167.558197	36.682220	-81.722008	-230.627228	653.970947	-412.445465	-241.852417	462.793976	-357.014587	-257.181183	316.632568	-398.376404	-280.078979	74.178757	-318.864624	-325.991455	62.555794	-276.854279	-138.107758	38.019569	-294.634705
105	1.04000000	-226.460922	1426.537231	-41.375587	-269.585907	1432.813721	-388.228394	-274.540619	1469.517090	-196.295502	-150.441193	1343.780396	-214.646454	-244.126434	1153.752441	123.056625	-280.458069	1131.136353	-512.388306	-134.494049	923.313690	181.079094	-141.393013	915.645203	-562.663727	-193.755493	1010.796814	-61.259178	-177.247482	1018.917236	-341.804291	-340.610626	1013.803528	-163.384018	-348.406738	1007.005554	-251.784637	-344.508682	1010.404541	-207.584328	-375.799866	1238.157227	-209.876602	-135.665970	1199.859619	-218.902222	-241.818390	680.147827	2.511378	-262.534576	471.041107	-59.876503	-309.471619	313.091003	-16.427948	-316.155731	76.296936	-88.911690	-355.507172	52.379044	-143.442993	-167.566299	36.671837	-81.733803	-230.636368	654.010498	-412.451904	-241.877533	462.801758	-357.009003	-257.166687	316.569366	-398.381897	-280.160736	74.215202	-318.904633	-325.954834	62.502522	-276.910492	-138.165466	38.046463	-294.546387
106	1.05000000	-226.396622	1426.607300	-41.362526	-269.553101	1432.822998	-388.289459	-274.559601	1469.539429	-196.272171	-150.464523	1343.723389	-214.651505	-244.213287	1153.817383	123.091110	-280.463501	1131.146973	-512.380249	-134.502544	923.400513	181.070808	-141.374634	915.657715	-562.519440	-193.749435	1010.845215	-61.272861	-177.290573	1018.888855	-341.800232	-340.545563	1013.781250	-163.394104	-348.470673	1007.011902	-251.838791	-344.508118	1010.396576	-207.616447	-375.870819	1238.202148	-209.913071	-135.787796	1199.782959	-218.960251	-241.727921	679.861572	2.355822	-262.616760	471.100525	-59.899853	-309.503632	313.079773	-16.434599	-316.265442	76.315010	-88.924438	-355.561584	52.498425	-143.309921	-167.563751	36.679466	-81.738129	-230.630737	654.005493	-412.450653	-241.842651	462.813904	-357.033295	-257.230804	316.625214	-398.360382	-280.195831	74.286873	-318.961090	-325.948792	62.481880	-276.906555	-138.100388	38.058609	-294.582489
107	1.06000000	-226.345947	1426.598999	-41.493225	-269.567932	1432.917114	-388.298218	-274.545624	1469.535156	-196.293915	-150.494278	1343.648804	-214.617691	-244.237518	1153.825073	123.104073	-280.458771	1131.135864	-512.389038	-134.535454	923.424835	181.097282	-141.444401	915.644714	-562.599884	-193.736862	1010.794189	-61.286808	-177.270538	1018.879333	-341.756165	-340.614807	1013.804199	-163.463852	-348.468292	1006.950439	-251.849335	-344.541550	1010.377319	-207.656593	-375.850891	1238.193970	-209.954453	-135.816040	1199.757446	-218.987045	-242.092346	680.208984	2.552445	-262.634277	471.111206	-59.969002	-309.564362	313.105621	-16.499060	-316.248138	76.296745	-88.973717	-355.530365	52.363094	-143.418991	-167.552673	36.624725	-81.769775	-230.622360	653.988708	-412.428589	-241.868851	462.816376	-357.045837	-257.190948	316.611115	-398.344421	-280.049561	74.114571	-319.048676	-325.867950	62.390083	-276.914001	-138.174026	38.058247	-294.565521
108	1.07000000	-226.279373	1426.534912	-41.639782	-269.565674	1432.828491	-388.303436	-274.541870	1469.531494	-196.315216	-150.500992	1343.645386	-214.587860	-244.245544	1153.813354	123.100624	-280.480438	1131.162842	-512.436523	-134.540657	923.399689	181.130585	-141.483257	915.647888	-562.622833	-193.704117	1010.717102	-61.340786	-177.263046	1018.880615	-341.752167	-340.637970	1013.747803	-163.449478	-348.458771	1007.021362	-251.891159	-344.548370	1010.384583	-207.670319	-375.846588	1238.240234	-209.978226	-135.806870	1199.764893	-218.988602	-242.429779	680.332886	2.611115	-262.662872	471.081757	-59.952362	-309.595520	313.085876	-16.493847	-316.283813	76.375122	-88.912712	-355.405853	52.348412	-143.506104	-167.589966	36.547901	-81.750839	-230.693588	653.984131	-412.510864	-241.911804	462.812927	-357.125000	-257.250000	316.529755	-398.455688	-280.051178	74.118614	-319.013977	-325.984894	62.466694	-276.873535	-138.098511	38.040878	-294.611572
109	1.08000000	-226.354843	1426.484253	-41.587250	-269.534393	1432.866821	-388.315125	-274.543854	1469.561279	-196.318115	-150.500473	1343.656738	-214.622345	-244.372528	1153.830444	123.082985	-280.427582	1131.168823	-512.471619	-134.436359	923.537689	181.060181	-141.422062	915.663574	-562.654724	-193.733658	1010.758301	-61.381123	-177.243088	1018.882751	-341.784393	-340.680695	1013.777588	-163.438782	-348.468842	1006.975708	-251.871887	-344.574768	1010.376648	-207.655334	-375.848541	1238.238525	-209.980606	-135.837753	1199.704468	-218.929749	-242.222855	680.094666	2.388604	-262.695404	471.099426	-59.976803	-309.656555	313.090210	-16.539692	-316.259033	76.278122	-88.961594	-355.404419	52.380444	-143.430099	-167.528458	36.642975	-81.776405	-230.746643	653.862488	-412.511230	-241.914520	462.851654	-357.148895	-257.276398	316.511169	-398.447510	-280.119232	74.279144	-318.980347	-326.032135	62.501404	-276.937805	-138.126587	38.045864	-294.682251
110	1.09000000	-226.446564	1426.578613	-41.360363	-269.570984	1432.850830	-388.387604	-274.550629	1469.517334	-196.306274	-150.601761	1343.647583	-214.638992	-244.397720	1153.836304	123.087723	-280.497070	1131.189697	-512.429077	-134.598198	923.462769	181.135246	-141.443035	915.627686	-562.607056	-193.717026	1010.792908	-61.409966	-177.290909	1018.884521	-341.880951	-340.686646	1013.780457	-163.439926	-348.523346	1007.038940	-251.946182	-344.604996	1010.409698	-207.693054	-375.848938	1238.242554	-209.976959	-135.951859	1199.676636	-219.056534	-242.116669	679.906128	2.222741	-262.760223	471.117096	-59.985416	-309.686066	313.124695	-16.576796	-316.243225	76.264542	-88.995636	-355.477173	52.355324	-143.458618	-167.623932	36.544022	-81.795746	-230.710434	654.030090	-412.506653	-241.919571	462.816101	-357.130432	-257.225128	316.716919	-398.439056	-280.028107	74.142761	-319.079987	-326.039429	62.554901	-276.936371	-138.149628	38.067543	-294.670990
